<svg width="1420" height="332" viewBox="0 0 1420 332" fill="none" xmlns="http://www.w3.org/2000/svg">
<path d="M140.652 78.8671C116.256 81.5453 88.7012 88.274 69.135 105.726C57.1083 116.453 47.44 131.946 39.1332 146.075C24.0372 171.753 3.09563 206.794 2.04604 238.563C0.875157 274.002 22.1512 313.176 53.0824 324.366C96.1326 339.94 144.753 320.596 182.943 298.357C195.751 290.899 261.123 249.045 248.039 225.923C237.767 207.77 190.674 216.649 175.857 219.36C156.517 222.899 138.313 227.625 118.511 227.625C115.088 227.625 130.397 226.956 132.239 226.652C144.603 224.61 157.132 220.929 168.883 216.322C203.048 202.927 236.503 186.199 267.302 165.156C277.132 158.44 297.082 149.239 297.968 134.165C298.658 122.432 299.805 110.27 300.072 98.5556C300.174 94.077 299.753 89.3975 301.068 85.0653C301.104 84.9469 299.048 103.793 298.522 107.792C292.937 150.197 296.535 194.136 293.983 236.861C292.854 255.751 293.496 278.055 287.23 296.17C285.539 301.058 285.398 307.587 288.89 299.33C291.768 292.525 293.229 284.491 295.643 277.454C306.121 246.913 318.244 217.443 332.841 188.977C340.935 173.192 358.258 152.825 359.854 133.557C360.115 130.407 360.693 121.941 362.843 119.581C365.767 116.371 363.589 128.665 363.286 133.193C360.058 181.385 357.134 230.756 348.34 278.183C347.817 281.004 337.739 319.601 338.266 304.556C339.034 282.62 345.282 261.334 349.447 240.021C356.054 206.217 360.584 172.119 369.596 138.905C375.989 115.345 392.503 67.5437 418.751 100.743C423.611 106.89 431.094 114.688 433.585 122.619C434.3 124.895 434.11 127.911 436.685 128.939C450.02 134.262 470.338 126.555 483.404 123.835C505.161 119.305 524.305 116.867 543.629 103.903C552.434 97.9963 555.677 88.671 561.564 79.3532C576.367 55.9225 588.854 21.0815 556.803 8.01281C552.568 6.2858 541.101 -0.872615 536.765 3.27298C527.165 12.4521 521.398 30.8667 516.395 43.1361C508.119 63.4321 501.533 84.4546 497.796 106.334C487.982 163.794 476.289 221.675 467.241 278.79C467.046 280.018 464.947 285.964 462.702 283.773C459.329 280.482 461.484 265.92 461.484 261.654C461.484 235.107 458.91 211.086 454.731 185.088C454.146 181.454 450.103 159.47 454.841 158.107C470.867 153.5 489.075 147.388 505.546 146.683C517.83 146.158 607.636 153.261 608.504 141.822C609.015 135.084 589.182 133.364 584.591 133.679C560.615 135.324 542.969 151.669 529.458 172.205C517.598 190.233 519.854 217.242 527.576 236.74C537.627 262.117 567.396 258.528 587.248 249.987C606.35 241.769 625.94 224.055 630.867 201.13C633.4 189.343 633.925 176.978 635.738 165.035C636.949 157.055 636.802 156.576 633.524 164.427C623.099 189.396 613.154 215.429 613.154 243.424C613.154 264.488 626.66 268.614 641.827 258.737C674.151 237.687 692.011 191.964 708.805 157.378C714.989 144.644 718.283 119.002 730.283 110.952C730.815 110.595 739.765 108.176 739.582 109.98C739.319 112.577 729.521 117.713 728.179 118.852C716.602 128.673 706.05 141.175 695.963 152.76C671.467 180.893 664.24 217.084 673.822 254.484C676.505 264.959 677.576 271.677 687.549 271.377C700.06 271.001 711.259 266.795 722.644 261.29C745.024 250.468 768.684 243.228 780.323 217.902C792.948 190.43 804.977 161.941 814.642 133.071C822.111 110.761 828.568 86.6932 830.141 62.9462C831.677 39.7694 829.96 64.93 828.148 74.978C817.957 131.498 807.807 188.163 796.375 244.396C791.407 268.833 786.104 293.414 778.883 317.195C774.523 331.555 779.024 311.713 779.658 309.539C791.963 267.367 795.519 224.117 811.542 182.9C814.523 175.232 824.713 147.457 837.448 152.76C849.849 157.924 857.007 176.204 863.353 187.518C875.344 208.896 887.92 229.758 900.994 250.352C902.297 252.403 909.792 261.133 907.194 264.936C905.445 267.495 886.604 275.277 888.152 277.94C891.893 284.373 901.792 281.733 908.744 281.586C956.566 280.571 1005.07 271.535 1052.22 264.206C1174.18 245.252 1295.89 225.483 1418 207.936" stroke="black" stroke-width="3" stroke-linecap="square"/>
</svg>
